<svg width="89" height="87" viewBox="0 0 89 87" fill="none" xmlns="http://www.w3.org/2000/svg">
<g clip-path="url(#clip0_1_42)">
<path d="M0.917969 75.7821C0.917969 81.9781 5.99825 87 12.2648 87H77.5708C83.8384 87 88.918 81.9774 88.918 75.7821V11.2182C88.918 5.02187 83.8377 0 77.5711 0H12.2652C5.99756 0 0.917969 5.02255 0.917969 11.2179V75.7818V75.7821Z" fill="#563D7C"/>
<path d="M37.4098 38.4832V26.1629H48.3792C49.4242 26.1629 50.4313 26.2489 51.4014 26.4212C52.3715 26.5931 53.2298 26.9003 53.9761 27.3431C54.722 27.786 55.3191 28.4007 55.767 29.1875C56.2146 29.9746 56.4387 30.9829 56.4387 32.2121C56.4387 34.4255 55.767 36.0241 54.4237 37.0076C53.0806 37.9915 51.3643 38.4832 49.2746 38.4832H37.4098ZM25.6937 17.1621V69.8379H51.5135C53.9015 69.8379 56.2273 69.5429 58.4909 68.9526C60.7545 68.3623 62.7692 67.4525 64.5354 66.223C66.3013 64.9934 67.7069 63.407 68.7515 61.4645C69.7965 59.5216 70.3187 57.2222 70.3187 54.5663C70.3187 51.2709 69.5102 48.4553 67.8935 46.1192C66.2765 43.7828 63.8263 42.1474 60.5428 41.2129C62.9308 40.0819 64.7344 38.6307 65.9534 36.8601C67.172 35.0895 67.7814 32.8765 67.7814 30.2203C67.7814 27.7612 67.371 25.6956 66.5501 24.0232C65.7293 22.3512 64.5725 21.0108 63.08 20.0025C61.5878 18.9942 59.7968 18.2686 57.7072 17.8262C55.6179 17.3833 53.3044 17.1621 50.7672 17.1621H25.6937ZM37.4098 60.8371V46.3771H50.1701C52.7073 46.3771 54.7471 46.9548 56.2895 48.111C57.8316 49.2668 58.603 51.1971 58.603 53.9023C58.603 55.2797 58.3665 56.4107 57.8938 57.296C57.4212 58.1813 56.7869 58.8823 55.9908 59.3986C55.195 59.9151 54.2745 60.2839 53.2298 60.5054C52.1848 60.7263 51.0907 60.8371 49.9463 60.8371H37.4098Z" fill="white"/>
</g>
<defs>
<clipPath id="clip0_1_42">
<rect width="88" height="87" fill="white" transform="translate(0.917969)"/>
</clipPath>
</defs>
</svg>
